<mxfile>
    <diagram id="RMeTMURui9rKbRfa5Uhx" name="Page-1">
        <mxGraphModel dx="1182" dy="1294" grid="1" gridSize="10" guides="1" tooltips="1" connect="1" arrows="1" fold="1" page="1" pageScale="1" pageWidth="850" pageHeight="1100" math="0" shadow="0">
            <root>
                <mxCell id="0"/>
                <mxCell id="1" parent="0"/>
                <mxCell id="20" style="edgeStyle=orthogonalEdgeStyle;rounded=0;orthogonalLoop=1;jettySize=auto;html=1;" parent="1" source="2" target="95" edge="1">
                    <mxGeometry relative="1" as="geometry">
                        <mxPoint x="401.9799999999998" y="166.89999999999986" as="targetPoint"/>
                    </mxGeometry>
                </mxCell>
                <mxCell id="2" value="" style="rounded=0;whiteSpace=wrap;html=1;" parent="1" vertex="1">
                    <mxGeometry x="-70" y="42.5" width="220" height="390" as="geometry"/>
                </mxCell>
                <mxCell id="3" value="nav" style="rounded=0;whiteSpace=wrap;html=1;" parent="1" vertex="1">
                    <mxGeometry x="-70" y="42.5" width="220" height="20" as="geometry"/>
                </mxCell>
                <mxCell id="4" value="start" style="rounded=1;whiteSpace=wrap;html=1;" parent="1" vertex="1">
                    <mxGeometry x="-40" y="122.5" width="70" height="20" as="geometry"/>
                </mxCell>
                <mxCell id="5" value="" style="ellipse;whiteSpace=wrap;html=1;" parent="1" vertex="1">
                    <mxGeometry x="70" y="72.5" width="60" height="60" as="geometry"/>
                </mxCell>
                <mxCell id="6" value="title title" style="text;html=1;strokeColor=none;fillColor=none;align=center;verticalAlign=middle;whiteSpace=wrap;rounded=0;" parent="1" vertex="1">
                    <mxGeometry x="-50" y="82.5" width="80" height="20" as="geometry"/>
                </mxCell>
                <mxCell id="22" value="about" style="rounded=0;whiteSpace=wrap;html=1;" parent="1" vertex="1">
                    <mxGeometry x="-40" y="177.5" width="170" height="60" as="geometry"/>
                </mxCell>
                <mxCell id="23" value="sube 1" style="rounded=0;whiteSpace=wrap;html=1;" parent="1" vertex="1">
                    <mxGeometry x="-40" y="252.5" width="170" height="17.5" as="geometry"/>
                </mxCell>
                <mxCell id="24" value="news ltter" style="rounded=0;whiteSpace=wrap;html=1;" parent="1" vertex="1">
                    <mxGeometry x="-40" y="350" width="170" height="20" as="geometry"/>
                </mxCell>
                <mxCell id="25" value="footer" style="rounded=0;whiteSpace=wrap;html=1;" parent="1" vertex="1">
                    <mxGeometry x="-70" y="382.5" width="220" height="50" as="geometry"/>
                </mxCell>
                <mxCell id="26" value="landing page" style="text;html=1;strokeColor=none;fillColor=none;align=center;verticalAlign=middle;whiteSpace=wrap;rounded=0;" parent="1" vertex="1">
                    <mxGeometry x="-10" y="22.5" width="100" height="20" as="geometry"/>
                </mxCell>
                <mxCell id="74" value="" style="rounded=0;whiteSpace=wrap;html=1;" parent="1" vertex="1">
                    <mxGeometry x="482" y="100" width="220" height="290" as="geometry"/>
                </mxCell>
                <mxCell id="75" value="nav" style="rounded=0;whiteSpace=wrap;html=1;" parent="1" vertex="1">
                    <mxGeometry x="482" y="100" width="220" height="20" as="geometry"/>
                </mxCell>
                <mxCell id="76" value="meal management system" style="text;html=1;strokeColor=none;fillColor=none;align=center;verticalAlign=middle;whiteSpace=wrap;rounded=0;" parent="1" vertex="1">
                    <mxGeometry x="480" y="70" width="210" height="20" as="geometry"/>
                </mxCell>
                <mxCell id="89" value="add meal" style="rounded=0;whiteSpace=wrap;html=1;" parent="1" vertex="1">
                    <mxGeometry x="492" y="130" width="60" height="10" as="geometry"/>
                </mxCell>
                <mxCell id="95" value="" style="rounded=0;whiteSpace=wrap;html=1;" parent="1" vertex="1">
                    <mxGeometry x="500" y="160" width="40" height="210" as="geometry"/>
                </mxCell>
                <mxCell id="174" value="" style="rounded=0;whiteSpace=wrap;html=1;" parent="1" vertex="1">
                    <mxGeometry x="1130" y="-235" width="220" height="100" as="geometry"/>
                </mxCell>
                <mxCell id="175" value="nav" style="rounded=0;whiteSpace=wrap;html=1;" parent="1" vertex="1">
                    <mxGeometry x="1130" y="-235" width="220" height="20" as="geometry"/>
                </mxCell>
                <mxCell id="176" value="add step" style="text;html=1;strokeColor=none;fillColor=none;align=center;verticalAlign=middle;whiteSpace=wrap;rounded=0;" parent="1" vertex="1">
                    <mxGeometry x="1180" y="-265" width="100" height="20" as="geometry"/>
                </mxCell>
                <mxCell id="177" value="" style="rounded=0;whiteSpace=wrap;html=1;" parent="1" vertex="1">
                    <mxGeometry x="1150" y="-205" width="168" height="10" as="geometry"/>
                </mxCell>
                <mxCell id="181" value="" style="rounded=0;whiteSpace=wrap;html=1;" parent="1" vertex="1">
                    <mxGeometry x="1150" y="-190" width="168" height="10" as="geometry"/>
                </mxCell>
                <mxCell id="182" value="" style="rounded=0;whiteSpace=wrap;html=1;" parent="1" vertex="1">
                    <mxGeometry x="562" y="160" width="40" height="210" as="geometry"/>
                </mxCell>
                <mxCell id="183" value="" style="rounded=0;whiteSpace=wrap;html=1;" parent="1" vertex="1">
                    <mxGeometry x="632" y="160" width="40" height="210" as="geometry"/>
                </mxCell>
                <mxCell id="184" value="" style="rounded=0;whiteSpace=wrap;html=1;" parent="1" vertex="1">
                    <mxGeometry x="500" y="175" width="40" height="15" as="geometry"/>
                </mxCell>
                <mxCell id="185" value="" style="rounded=0;whiteSpace=wrap;html=1;" parent="1" vertex="1">
                    <mxGeometry x="562" y="185" width="40" height="15" as="geometry"/>
                </mxCell>
                <mxCell id="186" value="" style="rounded=0;whiteSpace=wrap;html=1;" parent="1" vertex="1">
                    <mxGeometry x="562" y="170" width="40" height="15" as="geometry"/>
                </mxCell>
                <mxCell id="187" value="" style="rounded=0;whiteSpace=wrap;html=1;" parent="1" vertex="1">
                    <mxGeometry x="500" y="197.5" width="40" height="15" as="geometry"/>
                </mxCell>
                <mxCell id="188" value="" style="rounded=0;whiteSpace=wrap;html=1;" parent="1" vertex="1">
                    <mxGeometry x="500" y="220" width="40" height="15" as="geometry"/>
                </mxCell>
                <mxCell id="189" value="" style="rounded=0;whiteSpace=wrap;html=1;" parent="1" vertex="1">
                    <mxGeometry x="632" y="175" width="40" height="15" as="geometry"/>
                </mxCell>
                <mxCell id="193" value="" style="rounded=0;whiteSpace=wrap;html=1;" parent="1" vertex="1">
                    <mxGeometry x="772" y="110" width="220" height="290" as="geometry"/>
                </mxCell>
                <mxCell id="194" value="nav" style="rounded=0;whiteSpace=wrap;html=1;" parent="1" vertex="1">
                    <mxGeometry x="772" y="110" width="220" height="20" as="geometry"/>
                </mxCell>
                <mxCell id="195" value="meal management system" style="text;html=1;strokeColor=none;fillColor=none;align=center;verticalAlign=middle;whiteSpace=wrap;rounded=0;" parent="1" vertex="1">
                    <mxGeometry x="770" y="80" width="210" height="20" as="geometry"/>
                </mxCell>
                <mxCell id="196" value="add stpe" style="rounded=0;whiteSpace=wrap;html=1;" parent="1" vertex="1">
                    <mxGeometry x="782" y="140" width="60" height="10" as="geometry"/>
                </mxCell>
                <mxCell id="197" value="" style="rounded=0;whiteSpace=wrap;html=1;" parent="1" vertex="1">
                    <mxGeometry x="790" y="170" width="40" height="210" as="geometry"/>
                </mxCell>
                <mxCell id="198" value="" style="rounded=0;whiteSpace=wrap;html=1;" parent="1" vertex="1">
                    <mxGeometry x="852" y="170" width="40" height="210" as="geometry"/>
                </mxCell>
                <mxCell id="199" value="" style="rounded=0;whiteSpace=wrap;html=1;" parent="1" vertex="1">
                    <mxGeometry x="922" y="170" width="40" height="210" as="geometry"/>
                </mxCell>
                <mxCell id="200" value="" style="rounded=0;whiteSpace=wrap;html=1;" parent="1" vertex="1">
                    <mxGeometry x="790" y="185" width="40" height="15" as="geometry"/>
                </mxCell>
                <mxCell id="201" value="" style="rounded=0;whiteSpace=wrap;html=1;" parent="1" vertex="1">
                    <mxGeometry x="852" y="195" width="40" height="15" as="geometry"/>
                </mxCell>
                <mxCell id="202" value="" style="rounded=0;whiteSpace=wrap;html=1;" parent="1" vertex="1">
                    <mxGeometry x="852" y="180" width="40" height="15" as="geometry"/>
                </mxCell>
                <mxCell id="203" value="" style="rounded=0;whiteSpace=wrap;html=1;" parent="1" vertex="1">
                    <mxGeometry x="790" y="207.5" width="40" height="15" as="geometry"/>
                </mxCell>
                <mxCell id="204" value="" style="rounded=0;whiteSpace=wrap;html=1;" parent="1" vertex="1">
                    <mxGeometry x="790" y="230" width="40" height="15" as="geometry"/>
                </mxCell>
                <mxCell id="205" value="" style="rounded=0;whiteSpace=wrap;html=1;" parent="1" vertex="1">
                    <mxGeometry x="922" y="185" width="40" height="15" as="geometry"/>
                </mxCell>
                <mxCell id="206" value="" style="rounded=0;whiteSpace=wrap;html=1;" parent="1" vertex="1">
                    <mxGeometry x="462" y="-215" width="238" height="235" as="geometry"/>
                </mxCell>
                <mxCell id="207" value="sube 2" style="rounded=0;whiteSpace=wrap;html=1;" parent="1" vertex="1">
                    <mxGeometry x="-40" y="280" width="170" height="17.5" as="geometry"/>
                </mxCell>
                <mxCell id="208" value="sube 3" style="rounded=0;whiteSpace=wrap;html=1;" parent="1" vertex="1">
                    <mxGeometry x="-40" y="310" width="170" height="17.5" as="geometry"/>
                </mxCell>
                <mxCell id="209" value="meal title" style="rounded=0;whiteSpace=wrap;html=1;" vertex="1" parent="1">
                    <mxGeometry x="492" y="-170" width="168" height="20" as="geometry"/>
                </mxCell>
                <mxCell id="211" value="stpe 3" style="rounded=0;whiteSpace=wrap;html=1;" vertex="1" parent="1">
                    <mxGeometry x="492" y="-100" width="168" height="20" as="geometry"/>
                </mxCell>
                <mxCell id="212" value="requiemnts" style="rounded=0;whiteSpace=wrap;html=1;" vertex="1" parent="1">
                    <mxGeometry x="492" y="-60" width="168" height="20" as="geometry"/>
                </mxCell>
                <mxCell id="213" value="submit" style="rounded=0;whiteSpace=wrap;html=1;" vertex="1" parent="1">
                    <mxGeometry x="500" y="-20" width="88" height="20" as="geometry"/>
                </mxCell>
                <mxCell id="214" value="+" style="rounded=0;whiteSpace=wrap;html=1;" vertex="1" parent="1">
                    <mxGeometry x="632" y="-100" width="28" height="17" as="geometry"/>
                </mxCell>
                <mxCell id="215" value="+" style="rounded=0;whiteSpace=wrap;html=1;" vertex="1" parent="1">
                    <mxGeometry x="632" y="-58.5" width="28" height="17" as="geometry"/>
                </mxCell>
                <mxCell id="216" value="stpe1&amp;nbsp; &amp;nbsp; &amp;nbsp;X" style="text;html=1;strokeColor=none;fillColor=none;align=center;verticalAlign=middle;whiteSpace=wrap;rounded=0;" vertex="1" parent="1">
                    <mxGeometry x="492" y="-140" width="78" height="20" as="geometry"/>
                </mxCell>
                <mxCell id="217" value="stpe2&amp;nbsp; &amp;nbsp; &amp;nbsp;X" style="text;html=1;strokeColor=none;fillColor=none;align=center;verticalAlign=middle;whiteSpace=wrap;rounded=0;" vertex="1" parent="1">
                    <mxGeometry x="492" y="-120" width="78" height="20" as="geometry"/>
                </mxCell>
            </root>
        </mxGraphModel>
    </diagram>
</mxfile>